<?xml version="1.0" encoding="iso-8859-1"?>
<!-- Generator: Adobe Illustrator 19.0.0, SVG Export Plug-In . SVG Version: 6.00 Build 0)  -->
<svg version="1.1" id="Layer_1" xmlns="http://www.w3.org/2000/svg" xmlns:xlink="http://www.w3.org/1999/xlink" x="0px" y="0px"
	 viewBox="0 0 496.158 496.158" style="enable-background:new 0 0 496.158 496.158;" xml:space="preserve">
<path style="fill:#E04F5F;" d="M0,248.085C0,111.064,111.07,0.003,248.076,0.003c137.012,0,248.082,111.061,248.082,248.082
	c0,137.002-111.07,248.07-248.082,248.07C111.07,496.155,0,385.087,0,248.085z"/>
<g>
	<path style="fill:#FFFFFF;" d="M400.219,198.83l-150.08-74.912c-1.272-0.6-2.745-0.599-4.018-0.002L95.94,198.829
		c-1.652,0.778-2.707,2.44-2.707,4.267v29.605c0,1.614,0.825,3.117,2.188,3.981c1.363,0.865,3.073,0.973,4.535,0.286L248.127,163
		l148.072,73.966c0.639,0.301,1.324,0.45,2.009,0.45c0.882,0,1.759-0.247,2.526-0.734c1.363-0.864,2.189-2.367,2.189-3.981v-29.605
		C402.925,201.269,401.871,199.607,400.219,198.83z"/>
	<polygon style="fill:#FFFFFF;" points="372.592,237.898 248.12,175.898 123.566,237.898 123.566,352.916 192.579,352.916 
		192.579,264.692 240.079,264.692 240.079,352.916 372.592,352.916 	"/>
</g>
<rect x="255.749" y="264.689" style="fill:#EA4949;" width="32" height="32"/>
<g>
</g>
<g>
</g>
<g>
</g>
<g>
</g>
<g>
</g>
<g>
</g>
<g>
</g>
<g>
</g>
<g>
</g>
<g>
</g>
<g>
</g>
<g>
</g>
<g>
</g>
<g>
</g>
<g>
</g>
</svg>
